<?xml version="1.0" standalone="no"?>
<!DOCTYPE svg PUBLIC "-//W3C//DTD SVG 20010904//EN"
 "http://www.w3.org/TR/2001/REC-SVG-20010904/DTD/svg10.dtd">
<svg version="1.0" xmlns="http://www.w3.org/2000/svg"
 width="37.000000pt" height="37.000000pt" viewBox="0 0 37.000000 37.000000"
 preserveAspectRatio="xMidYMid meet">

<g transform="translate(0.000000,37.000000) scale(0.100000,-0.100000)"
fill="#000000" stroke="none">
<path d="M125 359 c-44 -17 -92 -67 -111 -115 -30 -78 1 -168 73 -216 36 -23
53 -23 53 2 0 14 -7 20 -23 20 -14 0 -32 12 -45 30 -26 34 -8 43 21 10 20 -23
30 -25 46 -7 8 11 3 17 -24 30 -41 20 -51 49 -39 119 l9 51 102 1 102 1 6 -57
c8 -71 1 -94 -36 -113 -25 -14 -29 -21 -29 -60 0 -53 10 -56 62 -20 138 93 79
315 -88 330 -27 3 -62 0 -79 -6z"/>
</g>
</svg>
