<?xml version="1.0" standalone="no"?>
<!DOCTYPE svg PUBLIC "-//W3C//DTD SVG 20010904//EN"
 "http://www.w3.org/TR/2001/REC-SVG-20010904/DTD/svg10.dtd">
<svg version="1.0" xmlns="http://www.w3.org/2000/svg"
 width="37.000000pt" height="37.000000pt" viewBox="0 0 37.000000 37.000000"
 preserveAspectRatio="xMidYMid meet">

<g transform="translate(0.000000,37.000000) scale(0.100000,-0.100000)"
fill="#000000" stroke="none">
<path d="M16 354 c-13 -13 -16 -42 -16 -165 0 -85 5 -159 10 -170 10 -18 23
-19 173 -19 114 0 167 4 175 12 8 8 12 61 12 175 0 150 -1 163 -19 173 -11 5
-85 10 -170 10 -123 0 -152 -3 -165 -16z m99 -79 c0 -22 -31 -33 -47 -17 -17
17 -1 44 24 40 15 -2 23 -10 23 -23z m0 -130 c0 -79 0 -80 -25 -80 -24 0 -25
3 -28 69 -4 84 1 98 30 94 22 -3 23 -8 23 -83z m85 73 c0 -9 3 -9 12 0 17 17
58 15 80 -5 14 -13 18 -31 18 -85 0 -66 -1 -68 -25 -68 -24 0 -25 3 -25 54 0
61 -19 88 -45 66 -10 -8 -15 -31 -15 -66 0 -51 -1 -54 -25 -54 -25 0 -25 1
-25 85 0 84 0 85 25 85 14 0 25 -5 25 -12z"/>
</g>
</svg>
