<?xml version="1.0" standalone="no"?>
<!DOCTYPE svg PUBLIC "-//W3C//DTD SVG 20010904//EN"
 "http://www.w3.org/TR/2001/REC-SVG-20010904/DTD/svg10.dtd">
<svg version="1.0" xmlns="http://www.w3.org/2000/svg"
 width="480.000000pt" height="480.000000pt" viewBox="0 0 480.000000 480.000000"
 preserveAspectRatio="xMidYMid meet">

<g transform="translate(0.000000,480.000000) scale(0.100000,-0.100000)"
fill="#000000" stroke="none">
<path d="M740 4743 c-49 -9 -159 -44 -217 -69 -187 -83 -349 -252 -429 -448
-67 -163 -64 -91 -64 -1840 0 -1506 1 -1585 19 -1672 68 -328 317 -581 651
-660 70 -17 177 -18 1610 -22 1561 -3 1693 -1 1811 34 308 90 520 308 606 624
17 61 18 164 18 1705 0 1559 -1 1643 -18 1705 -64 225 -178 389 -354 508 -70
47 -122 72 -233 111 l-75 26 -1650 1 c-907 1 -1661 -1 -1675 -3z m3380 -209
c200 -71 346 -222 417 -428 l28 -81 0 -1625 c0 -1772 4 -1660 -59 -1795 -67
-143 -175 -254 -311 -319 -145 -71 -40 -67 -1840 -64 l-1620 3 -72 26 c-180
66 -307 182 -389 354 -67 139 -64 47 -64 1790 0 1743 -3 1651 64 1790 89 186
241 314 436 365 73 19 117 19 1700 17 l1625 -2 85 -31z"/>
<path d="M1035 2726 c-92 -29 -156 -85 -185 -162 -18 -49 -20 -78 -20 -272 0
-119 5 -234 10 -254 17 -59 71 -130 124 -163 49 -30 51 -30 214 -33 187 -4
224 3 294 53 62 46 98 109 105 185 7 70 -9 102 -61 127 -32 15 -36 14 -72 -3
-39 -19 -59 -47 -69 -96 -8 -41 -30 -56 -91 -64 -58 -7 -186 -1 -215 11 -32
12 -39 53 -39 231 0 182 8 223 45 238 9 3 71 6 137 6 l121 0 45 -50 c38 -41
51 -50 80 -50 44 0 88 26 102 61 30 71 -66 203 -169 233 -67 20 -296 21 -356
2z"/>
<path d="M1723 2725 c-39 -17 -69 -71 -59 -108 3 -15 17 -39 30 -54 23 -27 28
-28 130 -31 l106 -4 0 -281 c0 -155 5 -300 10 -322 12 -53 50 -85 100 -85 50
0 88 32 100 85 5 22 10 167 10 323 l0 282 94 0 c80 0 98 3 127 23 49 33 60 82
29 132 -12 20 -34 41 -47 46 -13 5 -153 9 -311 9 -224 -1 -294 -4 -319 -15z"/>
<path d="M2553 2720 c-17 -10 -37 -28 -42 -39 -7 -13 -11 -150 -11 -399 l0
-380 29 -31 c37 -40 96 -43 136 -8 34 28 44 79 45 215 l0 102 69 0 69 0 99
-137 c132 -185 150 -203 203 -203 57 0 100 42 100 97 0 31 -13 57 -75 145 -70
100 -88 138 -65 138 19 0 92 74 112 114 13 26 23 68 26 113 4 64 1 79 -22 127
-15 31 -48 73 -73 96 -71 62 -112 70 -357 70 -191 0 -214 -2 -243 -20z m472
-215 c14 -13 25 -33 25 -45 0 -11 -11 -32 -25 -45 -23 -24 -28 -25 -170 -25
l-145 0 0 70 0 70 145 0 c142 0 147 -1 170 -25z"/>
<path d="M3383 2720 c-17 -12 -36 -35 -42 -52 -15 -44 -15 -732 0 -761 6 -12
21 -32 32 -44 20 -23 24 -23 270 -23 l249 0 29 29 c32 32 38 71 17 116 -22 48
-52 55 -233 55 l-165 0 0 300 c0 310 -4 346 -43 378 -28 24 -79 24 -114 2z"/>
</g>
</svg>
