<?xml version="1.0" standalone="no"?>
<!DOCTYPE svg PUBLIC "-//W3C//DTD SVG 20010904//EN"
 "http://www.w3.org/TR/2001/REC-SVG-20010904/DTD/svg10.dtd">
<svg version="1.0" xmlns="http://www.w3.org/2000/svg"
 width="512.000000pt" height="512.000000pt" viewBox="0 0 512.000000 512.000000"
 preserveAspectRatio="xMidYMid meet">

<g transform="translate(0.000000,512.000000) scale(0.100000,-0.100000)"
fill="#000000" stroke="none">
<path d="M641 4360 c-144 -38 -265 -111 -362 -219 -71 -78 -115 -152 -153
-258 l-31 -88 0 -1235 0 -1235 31 -88 c44 -122 87 -189 179 -282 91 -91 174
-143 290 -183 l80 -27 1855 -3 c2084 -3 1926 -8 2095 73 220 106 369 312 405
560 8 57 10 413 8 1245 l-3 1165 -23 70 c-89 263 -273 440 -527 505 -77 20
-113 20 -1924 19 -1792 0 -1848 -1 -1920 -19z m3811 -271 c158 -53 275 -183
308 -344 7 -34 10 -425 8 -1215 l-3 -1165 -23 -56 c-53 -133 -165 -241 -288
-279 -65 -20 -83 -20 -1889 -20 -1761 0 -1825 1 -1884 19 -153 47 -275 178
-310 332 -14 60 -14 2338 0 2398 35 152 157 284 307 332 54 17 140 18 1885 18
1824 1 1828 1 1889 -20z"/>
<path d="M780 3559 c-60 -24 -90 -82 -75 -147 9 -45 156 -186 675 -648 124
-110 231 -207 237 -216 11 -13 -47 -75 -387 -412 -220 -218 -404 -405 -410
-415 -21 -41 -12 -91 24 -127 37 -37 73 -43 118 -20 15 8 152 137 305 288 153
150 335 329 405 397 l127 124 43 -36 c24 -20 90 -77 148 -127 163 -141 287
-196 498 -220 82 -10 113 -9 189 4 206 36 324 100 548 298 48 43 90 78 94 78
3 0 190 -180 415 -400 274 -268 419 -403 441 -410 37 -12 77 -1 113 32 24 24
30 84 11 119 -5 11 -190 198 -410 417 l-401 396 64 61 c35 33 160 146 278 250
230 204 329 294 482 442 75 72 99 102 104 128 9 48 -2 82 -36 116 -40 41 -111
41 -162 2 -19 -16 -280 -249 -579 -518 -711 -641 -730 -658 -808 -698 -102
-54 -177 -70 -301 -64 -117 5 -187 26 -277 83 -59 38 -129 99 -822 724 -271
245 -513 460 -538 478 -47 33 -71 38 -113 21z"/>
</g>
</svg>
