<?xml version="1.0" standalone="no"?>
<!DOCTYPE svg PUBLIC "-//W3C//DTD SVG 20010904//EN"
 "http://www.w3.org/TR/2001/REC-SVG-20010904/DTD/svg10.dtd">
<svg version="1.0" xmlns="http://www.w3.org/2000/svg"
 width="20.000000pt" height="20.000000pt" viewBox="0 0 20.000000 20.000000"
 preserveAspectRatio="xMidYMid meet">

<g transform="translate(0.000000,20.000000) scale(0.100000,-0.100000)"
fill="#000000" stroke="none">
<path d="M35 140 l-39 -40 39 -40 c36 -37 65 -51 65 -32 0 5 -10 17 -21 28
-21 19 -21 19 47 24 52 4 69 9 69 20 0 12 -14 15 -68 15 -37 0 -67 2 -67 5 0
3 9 11 20 18 22 14 27 42 7 42 -7 0 -31 -18 -52 -40z"/>
</g>
</svg>
